<?xml version="1.0" encoding="UTF-8"?>
<svg id="a" data-name="Layer 1" xmlns="http://www.w3.org/2000/svg" xmlns:xlink="http://www.w3.org/1999/xlink" viewBox="0 0 481 225">
  <defs>
    <style>
      .c {
        fill: url(#b);
      }

      .d {
        fill: #fff;
      }

      .e {
        fill: #98daf0;
      }
    </style>
    <linearGradient id="b" x1="240.5" y1="225" x2="240.5" y2="0" gradientUnits="userSpaceOnUse">
      <stop offset="0" stop-color="#159fd6"/>
      <stop offset=".14" stop-color="#168dc3"/>
      <stop offset=".53" stop-color="#186195"/>
      <stop offset=".83" stop-color="#1a4779"/>
      <stop offset="1" stop-color="#1b3d6f"/>
    </linearGradient>
  </defs>
  <rect class="c" width="481" height="225"/>
  <g>
    <g>
      <path class="e" d="m160.47,201.76c-1.9.42-3.19.61-5.51.61-6.34,0-11.25-4.14-11.25-12.2,0-9.23,6-13.22,11.82-13.22,2.01,0,3.19.15,4.9.49l-.34,2.36c-2.13-.42-2.85-.49-4.71-.49-4.45,0-8.93,3.27-8.93,10.41s3.91,10.3,8.97,10.3c1.79,0,3.08-.08,5.05-.53v2.28Z"/>
      <path class="e" d="m181.37,202.1h-2.85l-2.13-6.99h-9.99l-2.13,6.99h-2.74l7.98-24.92h4.14l7.71,24.92Zm-9.73-22.8h-.34l-4.18,13.53h8.59l-4.07-13.53Z"/>
      <path class="e" d="m185.2,177.18h2.62v22.57h9.57v2.36h-12.2v-24.92Z"/>
      <path class="e" d="m216.59,201.76c-1.9.42-3.19.61-5.51.61-6.34,0-11.25-4.14-11.25-12.2,0-9.23,6-13.22,11.82-13.22,2.01,0,3.19.15,4.9.49l-.34,2.36c-2.13-.42-2.85-.49-4.71-.49-4.45,0-8.93,3.27-8.93,10.41s3.91,10.3,8.97,10.3c1.79,0,3.08-.08,5.05-.53v2.28Z"/>
      <path class="e" d="m220.58,193.56v-16.38h2.66v16.07c0,4.79,1.75,6.76,6.08,6.76,3.84,0,6.04-2.32,6.04-6.54v-16.3h2.55v16.15c0,5.89-3.5,9.04-8.89,9.04s-8.43-2.89-8.43-8.81Z"/>
      <path class="e" d="m244.67,177.18h2.62v22.57h9.57v2.36h-12.2v-24.92Z"/>
      <path class="e" d="m277.76,202.1h-2.85l-2.13-6.99h-9.99l-2.13,6.99h-2.74l7.98-24.92h4.14l7.71,24.92Zm-9.73-22.8h-.34l-4.18,13.53h8.59l-4.07-13.53Z"/>
      <path class="e" d="m286.77,202.1h-2.62v-22.57h-7.41v-2.36h17.4v2.36h-7.37v22.57Z"/>
      <path class="e" d="m306.3,176.84c5.74,0,10.03,4.29,10.03,12.61s-4.64,12.99-10.68,12.99-10.07-4.29-10.07-12.61,4.67-12.99,10.71-12.99Zm-.34,23.25c3.65,0,7.67-2.66,7.67-10.26s-3.5-10.64-7.64-10.64c-3.65,0-7.67,2.66-7.67,10.26s3.5,10.64,7.64,10.64Z"/>
      <path class="e" d="m324.15,202.1h-2.62v-24.92h6.38c5.36,0,8.32,2.55,8.32,6.69,0,3.57-1.82,6-4.86,7.07l6.61,11.17h-3.08l-6.15-10.64h-4.6v10.64Zm0-12.92h3.69c3.5,0,5.7-1.52,5.7-4.94,0-3.12-1.86-4.79-5.81-4.79h-3.57v9.73Z"/>
    </g>
    <g>
      <path class="d" d="m178.15,159.3h-9.04l-2.77-9.9h-14.78l-2.77,9.9h-8.18l12.87-43.28h11.94l12.73,43.28Zm-18.94-36.29h-.46l-5.61,20.06h11.48l-5.41-20.06Z"/>
      <path class="d" d="m183.82,116.01h22.7v6.53h-14.78v11.22h13.59v6.53h-13.59v12.47h14.98v6.53h-22.9v-43.28Z"/>
      <path class="d" d="m223.21,159.3h-7.92v-43.28h12.67c10.82,0,16.17,4.95,16.17,12.07,0,5.87-3.04,10.29-7.85,12.47l11.48,18.74h-9.24l-9.9-16.56h-5.41v16.56Zm0-22.76h4.82c4.75,0,7.85-2.77,7.85-7.52,0-4.42-2.51-6.66-8.51-6.66h-4.16v14.19Z"/>
      <path class="d" d="m260.56,159.3h-7.92v-43.28h7.92v43.28Z"/>
      <path class="d" d="m270.52,144.32v-28.3h7.92v27.38c0,6.47,2.97,9.37,8.64,9.37s8.51-3.23,8.51-9.24v-27.51h7.52v27.71c0,9.7-6.27,16.1-16.49,16.1-11.08,0-16.1-5.41-16.1-15.5Z"/>
      <path class="d" d="m309.58,152.11c4.22.79,7.32,1.06,11.02,1.06,6,0,9.3-2.64,9.3-5.74,0-2.77-1.32-4.42-6.53-6.2l-5.41-1.85c-5.08-1.71-7.85-5.34-7.85-10.89,0-7.52,6.07-12.93,16.69-12.93,3.1,0,6.2.26,9.17.86l-.53,6.6c-3.17-.59-5.74-.86-9.04-.86-5.94,0-8.58,2.31-8.58,5.41,0,2.71,1.52,4.29,5.48,5.54l5.34,1.71c6.33,2.05,9.11,5.48,9.11,11.08,0,8.18-6.6,13.86-17.42,13.86-3.96,0-6.99-.13-10.75-.79v-6.86Z"/>
    </g>
    <g>
      <polygon class="d" points="232.69 27.76 240.34 14.52 247.98 27.76 232.69 27.76"/>
      <path class="d" d="m254.27,37.06h-27.89c-8.58,0-15.54,6.94-15.54,15.52v27.92c0,8.58,6.96,15.52,15.54,15.52h6.33v-13.09h15.27v13.09h6.29c8.6,0,15.55-6.94,15.55-15.52v-27.92c0-8.58-6.95-15.52-15.55-15.52Zm-21.58,28.34l7.65-13.24,7.64,13.24h-15.29Z"/>
    </g>
    <path class="d" d="m342.49,105.49c3,0,5.46,2.47,5.46,5.46s-2.46,5.48-5.46,5.48-5.48-2.46-5.48-5.48,2.47-5.46,5.48-5.46Zm0,10.15c2.55,0,4.62-2.13,4.62-4.69s-2.08-4.69-4.62-4.69-4.64,2.14-4.64,4.69,2.08,4.69,4.64,4.69Zm-1.11-1.61h-.95v-6.27h1.93c1.63,0,2.37.68,2.37,1.71,0,.95-.53,1.6-1.35,1.85l1.8,2.71h-1.16l-1.63-2.46h-1.02v2.46Zm0-3.27h.81c1.05,0,1.55-.39,1.55-1.19,0-.66-.44-1.03-1.39-1.03h-.97v2.22Z"/>
  </g>
</svg>