<?xml version="1.0" encoding="UTF-8"?>
<svg id="a" data-name="Layer 1" xmlns="http://www.w3.org/2000/svg" xmlns:xlink="http://www.w3.org/1999/xlink" viewBox="0 0 481 225">
  <defs>
    <style>
      .c {
        fill: url(#b);
      }

      .d {
        fill: #ebcdde;
      }

      .e {
        fill: #fff;
      }
    </style>
    <linearGradient id="b" x1="240.5" y1="225" x2="240.5" y2="0" gradientUnits="userSpaceOnUse">
      <stop offset="0" stop-color="#a92064"/>
      <stop offset=".15" stop-color="#962365"/>
      <stop offset=".53" stop-color="#692263"/>
      <stop offset=".83" stop-color="#4d2362"/>
      <stop offset="1" stop-color="#422462"/>
    </linearGradient>
  </defs>
  <rect class="c" width="481" height="225"/>
  <g>
    <g>
      <path class="e" d="m178.15,159.3h-9.04l-2.77-9.9h-14.78l-2.77,9.9h-8.18l12.87-43.28h11.94l12.73,43.28Zm-18.94-36.29h-.46l-5.61,20.06h11.48l-5.41-20.06Z"/>
      <path class="e" d="m183.82,116.01h22.7v6.53h-14.78v11.22h13.59v6.53h-13.59v12.47h14.98v6.53h-22.9v-43.28Z"/>
      <path class="e" d="m223.21,159.3h-7.92v-43.28h12.67c10.82,0,16.17,4.95,16.17,12.07,0,5.87-3.04,10.29-7.85,12.47l11.48,18.74h-9.24l-9.9-16.56h-5.41v16.56Zm0-22.76h4.82c4.75,0,7.85-2.77,7.85-7.52,0-4.42-2.51-6.66-8.51-6.66h-4.16v14.19Z"/>
      <path class="e" d="m260.56,159.3h-7.92v-43.28h7.92v43.28Z"/>
      <path class="e" d="m270.52,144.32v-28.3h7.92v27.38c0,6.47,2.97,9.37,8.64,9.37s8.51-3.23,8.51-9.24v-27.51h7.52v27.71c0,9.7-6.27,16.1-16.49,16.1-11.08,0-16.1-5.41-16.1-15.5Z"/>
      <path class="e" d="m309.58,152.11c4.22.79,7.32,1.06,11.02,1.06,6,0,9.3-2.64,9.3-5.74,0-2.77-1.32-4.42-6.53-6.2l-5.41-1.85c-5.08-1.71-7.85-5.34-7.85-10.89,0-7.52,6.07-12.93,16.69-12.93,3.1,0,6.2.26,9.17.86l-.53,6.6c-3.17-.59-5.74-.86-9.04-.86-5.94,0-8.58,2.31-8.58,5.41,0,2.71,1.52,4.29,5.48,5.54l5.34,1.71c6.33,2.05,9.11,5.48,9.11,11.08,0,8.18-6.6,13.86-17.42,13.86-3.96,0-6.99-.13-10.75-.79v-6.86Z"/>
    </g>
    <g>
      <polygon class="e" points="232.69 27.76 240.34 14.52 247.98 27.76 232.69 27.76"/>
      <path class="e" d="m254.27,37.06h-27.89c-8.58,0-15.54,6.94-15.54,15.52v27.92c0,8.58,6.96,15.52,15.54,15.52h6.33v-13.09h15.27v13.09h6.29c8.6,0,15.55-6.94,15.55-15.52v-27.92c0-8.58-6.95-15.52-15.55-15.52Zm-21.58,28.34l7.65-13.24,7.64,13.24h-15.29Z"/>
    </g>
    <path class="e" d="m342.49,105.49c3,0,5.46,2.47,5.46,5.46s-2.46,5.48-5.46,5.48-5.48-2.46-5.48-5.48,2.47-5.46,5.48-5.46Zm0,10.15c2.55,0,4.62-2.13,4.62-4.69s-2.08-4.69-4.62-4.69-4.64,2.14-4.64,4.69,2.08,4.69,4.64,4.69Zm-1.11-1.61h-.95v-6.27h1.93c1.63,0,2.37.68,2.37,1.71,0,.95-.53,1.6-1.35,1.85l1.8,2.71h-1.16l-1.63-2.46h-1.02v2.46Zm0-3.27h.81c1.05,0,1.55-.39,1.55-1.19,0-.66-.44-1.03-1.39-1.03h-.97v2.22Z"/>
  </g>
  <g>
    <path class="d" d="m145.07,208.9h-3.84v-35.55h9.12c7.73,0,11.85,3.63,11.85,9.53.28,4.55-2.58,8.71-6.93,10.07l9.43,15.94h-4.38l-8.78-15.17h-6.47v15.17Zm0-18.42h5.15c5,0,8.14-2.16,8.14-7.06,0-4.43-2.58-6.83-8.29-6.83h-5.15l.15,13.88Z"/>
    <path class="d" d="m169.85,173.35h17.23v3.35h-13.5v12.26h12.16v3.35h-12.16v13.24h13.68v3.35h-17.41v-35.55Z"/>
    <path class="d" d="m207.92,192.31h10.59v16c-3.3.67-6.65,1-10.02.98-8.89,0-16.49-5.8-16.49-17.41,0-13.6,9.66-18.86,18.26-18.86,2.59-.02,5.18.22,7.73.72l-.64,3.32c-2.39-.46-4.83-.69-7.26-.7-6.93,0-14.19,4.28-14.19,14.84s6.29,14.68,13.11,14.68c1.92.03,3.84-.08,5.74-.31v-9.89h-6.83v-3.37Z"/>
    <path class="d" d="m230.2,208.9h-3.73v-35.55h3.73v35.55Z"/>
    <path class="d" d="m236.71,204.88c2.73.66,5.53.99,8.35.98,5.15,0,8.6-2.58,8.6-6.67,0-3.07-1.67-4.92-5.64-6.29l-4.38-1.52c-3.8-.95-6.48-4.35-6.52-8.27,0-5.87,4.66-10.1,11.98-10.1,2.39-.03,4.77.19,7.11.64l-.44,3.4c-2.26-.5-4.57-.74-6.88-.72-5.15,0-8.01,2.58-8.01,6.03,0,2.99,1.44,4.56,4.92,5.69l4.56,1.57c4.71,1.62,7.03,4.33,7.03,8.94,0,6.41-5.15,10.69-12.67,10.69-2.69.01-5.38-.26-8.01-.82v-3.55Z"/>
    <path class="d" d="m274.71,208.9h-3.73v-32.2h-10.59v-3.35h24.83v3.35h-10.51v32.2Z"/>
    <path class="d" d="m290.63,173.35h17.23v3.35h-13.57v12.26h12.13v3.35h-12.13v13.24h13.65v3.35h-17.31v-35.55Z"/>
    <path class="d" d="m318.96,208.9h-3.81v-35.55h9.12c7.73,0,11.87,3.63,11.87,9.53.29,4.54-2.55,8.69-6.88,10.07l9.43,15.94h-4.38l-8.78-15.17h-6.57v15.17Zm0-18.42h5.15c4.97,0,8.11-2.16,8.11-7.06,0-4.43-2.58-6.83-8.29-6.83h-4.97v13.88Z"/>
  </g>
</svg>