<?xml version="1.0" encoding="utf-8"?>
<!-- Generator: Adobe Illustrator 27.5.0, SVG Export Plug-In . SVG Version: 6.00 Build 0)  -->
<svg version="1.1" id="a" xmlns="http://www.w3.org/2000/svg" xmlns:xlink="http://www.w3.org/1999/xlink" x="0px" y="0px"
	 viewBox="0 0 526 120" style="enable-background:new 0 0 526 120;" xml:space="preserve">
<style type="text/css">
	.st0{fill:#164273;}
	.st1{fill:#FFFFFF;}
</style>
<g id="b">
	<g id="c">
		<g id="d">
			<rect id="e" x="237.8" y="-0.2" class="st0" width="49.7" height="96.8"/>
			<path id="f" class="st1" d="M263.5,74.1h-0.9v-2.4h0.9V74.1z M267.4,63.5h-0.9v-2.4h0.9V63.5z M251.4,59.4c-0.1,0-0.5,0-0.5,0.1
				s0.2,0,0.5,0.1c0.7,0.1,1,0.5,1.4,0.5c0.4,0,0.7-0.2,0.8-0.6c0-0.1,0-0.2,0-0.3c0-0.1-0.1-0.1-0.1,0c-0.1,0.3-0.4,0.5-0.8,0.5
				C252.2,59.5,252.1,59.4,251.4,59.4L251.4,59.4z M246.6,61.8c0.1,0.1,0.9,1.2-0.4,1.6c-0.1,0-0.1,0.1,0,0.1
				c0.5,0.2,1.1,0.1,1.4-0.3c0.3,0.5,0.2,1.2-0.2,1.6c0.3,0.4,0.7,0.6,1.2,0.7c0.3-0.2,0.6-0.4,0.8-0.8c0.1,0.3,0.1,0.6,0,0.9
				c1.9,0.2,2.6-1.3,4-1.1c0,0,0.1,0,0.1-0.1c0-1.4-1-2.7-2.4-3c-1.8-0.3-1.3-1.1-1.3-1.1c0.4,0,0.8,0.1,1.2,0.3
				c0.1-0.2,0.1-0.3-0.1-0.5c0.1-0.1,0.1-0.3,0.1-0.4c-0.9,0-1.1-0.2-1.1-0.2c-0.1-0.5,0.2-1.2,1.5-0.5c0.2-0.2,0.3-0.4,0.3-0.7
				c0.1-0.1,0.1-0.2,0.1-0.3c0-0.2-1-0.8-1.3-0.8c-0.1-0.3-0.5-0.8-1.6-0.6c-0.6,0.1-1-0.1-0.8-0.4c0-0.1-0.1-0.1-0.1,0
				c-0.1,0.1-0.3,0.5,0.2,0.8c0.3,0.2,0.6,0.5,0.6,0.9c0,0.1-0.1,0.1-0.2,0c-0.3-0.8-1.2-1.1-2-0.8c-0.1,0-0.2,0.1-0.3,0.2
				c0.1,0.4,0.4,0.8,0.9,0.8c0.2,0,0.4-0.2,0.4-0.4c0-0.1,0.1-0.1,0.1,0c0,0.4-0.2,0.7-0.6,0.7c-0.2,0-0.4,0-0.5-0.1
				c-0.5,0.5-0.6,1.3-0.4,2c0.1,0.6-0.2,1.2-0.7,0.9c0,0-0.1,0-0.1,0c0,0.4,0.4,0.7,0.8,0.6C246.4,61.9,246.5,61.8,246.6,61.8
				L246.6,61.8L246.6,61.8z M250.7,58c-0.3,0.4-0.9,0.3-1-0.3C250.4,57.7,250.7,57.8,250.7,58L250.7,58z M272.6,59.5
				c-0.3,0-0.6-0.1-0.8-0.5c0-0.1-0.1-0.1-0.1,0c-0.1,0.4,0,0.8,0.4,0.9c0.1,0,0.2,0,0.3,0c0.5,0,0.8-0.3,1.5-0.5
				c0.3,0,0.5,0,0.5-0.1s-0.5-0.1-0.5-0.1C273.2,59.3,273.1,59.5,272.6,59.5L272.6,59.5L272.6,59.5z M279.7,61.3
				C279.7,61.2,279.7,61.2,279.7,61.3c-0.6,0.2-0.9-0.4-0.8-1c0.3-0.7,0.1-1.4-0.4-2c-0.3,0.2-0.7,0.2-1-0.1
				c-0.1-0.1-0.2-0.3-0.1-0.5c0-0.1,0.1-0.1,0.1,0c0,0.2,0.2,0.4,0.4,0.4c0.4,0,0.8-0.4,0.9-0.8c-0.7-0.5-1.6-0.3-2.1,0.3
				c-0.1,0.1-0.1,0.2-0.2,0.3c0,0.1-0.2,0.1-0.2,0c0-0.4,0.2-0.7,0.6-0.9c0.5-0.2,0.3-0.6,0.2-0.8c0,0-0.1,0-0.1,0
				c0.2,0.3-0.2,0.5-0.8,0.4c-1.2-0.2-1.6,0.3-1.6,0.6c-0.3,0.1-1.3,0.6-1.3,0.8c0,0.1,0.1,0.2,0.1,0.3c0,0.3,0.1,0.5,0.3,0.7
				c1.3-0.8,1.6,0,1.5,0.5c0,0-0.2,0.2-1.1,0.2c0,0.1,0,0.3,0.1,0.4c-0.1,0.1-0.1,0.3-0.1,0.5c0.4-0.2,0.8-0.3,1.2-0.3
				c0,0,0.5,0.7-1.3,1.1c-1.4,0.3-2.4,1.5-2.4,3c0,0,0,0.1,0.1,0.1c1.5-0.3,2.1,1.2,4,1.1c-0.1-0.3-0.1-0.6,0-0.9
				c0.1,0.3,0.4,0.6,0.8,0.8c0.5-0.1,0.9-0.3,1.2-0.7c-0.4-0.4-0.5-1.1-0.2-1.7c0.3,0.4,0.9,0.6,1.4,0.3c0.1,0,0.1-0.1,0-0.1
				c-1.2-0.4-0.4-1.5-0.4-1.6c0.3,0.2,0.7,0.1,1-0.2C279.6,61.5,279.7,61.4,279.7,61.3L279.7,61.3L279.7,61.3z M275.6,57.7
				c-0.1,0.6-0.7,0.7-1,0.3C274.6,57.8,274.9,57.7,275.6,57.7L275.6,57.7L275.6,57.7z M262.3,47.1c0,0.1,0,0.3,0.1,0.4
				c0.1,0.2,0.1,0.2,0,0.3s-0.1,0.1-0.3,0c-0.1-0.1-0.2-0.1-0.4-0.1c-0.2,0-0.4,0.1-0.4,0.3c0,0.2,0.1,0.4,0.3,0.4c0,0,0.1,0,0.1,0
				c0.1,0,0.3,0,0.4-0.1c0.2-0.1,0.2-0.1,0.3,0c0,0.3,0,0.7-0.1,1c-0.3,0-0.6,0.3-0.7,0.7c0,0.5,0.6,0.9,0.9,1
				c0.3-0.2,0.9-0.5,0.9-1c0-0.3-0.3-0.6-0.7-0.7c-0.1-0.3-0.1-0.7-0.1-1c0,0,0.1-0.1,0.3,0c0.1,0.1,0.2,0.1,0.4,0.1
				c0.2,0,0.4-0.1,0.4-0.3c0-0.2-0.1-0.4-0.3-0.4c0,0-0.1,0-0.1,0c-0.1,0-0.3,0-0.4,0.1c-0.2,0.1-0.2,0.1-0.3,0s-0.1-0.1,0-0.3
				c0.1-0.1,0.1-0.2,0.1-0.4c0-0.2-0.1-0.4-0.3-0.4c-0.2,0-0.4,0.1-0.4,0.3C262.3,47,262.3,47,262.3,47.1L262.3,47.1L262.3,47.1z
				 M262.6,51.1c-0.4,0-0.7,0.3-0.7,0.7s0.3,0.7,0.7,0.7s0.7-0.3,0.7-0.7C263.3,51.4,263,51.1,262.6,51.1L262.6,51.1L262.6,51.1z
				 M262.6,57.5c1.4,0,2.8,0.1,4.1,0.5c0-1.3,0-2.1,0.8-2c-0.4-1.1,1.4-1.6,1.4-3c0-1-0.7-1.1-0.9-1.1c-0.6,0-0.5,0.4-1,0.4
				c-0.1,0-0.1,0-0.1,0c0,0.2,0.1,0.5,0.4,0.5c0.3,0,0.3-0.3,0.5-0.3c0.1,0,0.2,0.1,0.2,0.4c-0.1,0.7-0.4,1.3-0.9,1.8
				c-0.1-0.2-0.3-0.2-0.4-0.2c-0.3,0-0.6,0.3-0.5,0.7c0,0.1,0,0.2,0.1,0.3c-0.1,0.1-0.3,0.1-0.4,0.1c-0.3,0-0.5-0.2-0.5-0.5
				c0,0,0-0.1,0-0.1c0-1.1,1.4-2,1.4-3.3c0-0.7-0.5-1.3-1.2-1.3c0,0-0.1,0-0.1,0c-1,0-0.8,0.9-1.6,0.9c0,0-0.1,0-0.1,0
				c0,0.1,0.1,0.5,0.6,0.5c0.5,0,0.6-0.8,1-0.8c0.1,0,0.4,0.1,0.4,0.6c-0.1,0.6-0.2,1.2-0.5,1.8c-0.1-0.1-0.3-0.2-0.4-0.2
				c-0.4,0-0.6,0.4-0.6,0.8l0,0c0,0.2,0.1,0.5,0.3,0.7c-0.2,0.3-0.4,0.5-0.7,0.5c-0.6,0-0.8-0.3-0.8-0.7c0-0.4,0.7-0.5,0.7-1.1
				c0-0.3-0.2-0.6-0.5-0.6c0,0,0,0,0,0c-0.2,0-0.3,0.1-0.4,0.2c-0.1-0.1-0.3-0.2-0.4-0.2c-0.3,0-0.5,0.3-0.5,0.6c0,0,0,0,0,0
				c0,0.6,0.7,0.7,0.7,1.1c0,0.4-0.2,0.7-0.8,0.7c-0.3,0-0.5-0.2-0.7-0.5c0.2-0.2,0.3-0.4,0.3-0.7c0-0.4-0.2-0.7-0.6-0.8l0,0
				c-0.2,0-0.3,0.1-0.4,0.2c-0.3-0.5-0.5-1.1-0.5-1.8c0-0.5,0.2-0.6,0.4-0.6c0.4,0,0.5,0.8,1,0.8c0.4,0,0.6-0.5,0.6-0.5
				c0,0,0,0-0.1,0c-0.8,0-0.6-0.9-1.6-0.9c-0.7,0-1.3,0.5-1.3,1.2c0,0,0,0.1,0,0.1c0,1.3,1.4,2.3,1.4,3.3c0,0.3-0.2,0.5-0.4,0.6
				c0,0-0.1,0-0.1,0c-0.1,0-0.3-0.1-0.4-0.1c0-0.1,0.1-0.2,0.1-0.3c0-0.3-0.2-0.6-0.5-0.7c-0.2,0-0.3,0.1-0.4,0.2
				c-0.5-0.5-0.8-1.2-0.9-1.8c0-0.3,0.1-0.4,0.2-0.4c0.2,0,0.2,0.3,0.5,0.3c0.2,0,0.4-0.3,0.4-0.5c0,0-0.1,0-0.1,0
				c-0.5,0-0.4-0.4-1-0.4c-0.2,0-0.9,0.1-0.9,1.1c0,1.5,1.8,1.9,1.4,3c0.8-0.1,0.8,0.6,0.8,2C259.8,57.6,261.2,57.5,262.6,57.5
				L262.6,57.5L262.6,57.5z M257.8,59.5c-0.7,0.2-1.2,0.3-1.5,0.4c0-0.3,0.1-0.6,0.4-0.7c0,0,0,0,0,0c0,0,0,0,0,0
				c-0.6-0.4-1,0.4-1,0.4c-0.2,0-0.6,0-0.6,0.4c0,0.9-2.1,1.4-2.6,1.5c0.6,0.3,1,0.8,1.2,1.4c0.4-0.5,0.9-0.9,1.5-1.2
				c0.2,0,0.2,0.2,0.2,0.3c0,0,0,0,0.1,0c0.3-0.5,0.2-0.6,0.1-0.7c-0.1-0.2,0.1-0.4,0.3-0.5c0.1,0,0.1,0,0.2,0v6.1L256,67
				c-0.1,0-1-0.8-2-1.5s-1.6-0.3-2.8,0.3c-1,0.5-2.1,0.5-3.1,0.1c-1.3,0.9-1.8,3.7-1.8,3.7c-0.4,0.2-0.7,0.2-1.1,0.2
				c-1,0-1.2-0.6-1.2-1c0-1.6,1.9-2.2,1.9-3.8c0-1-0.8-1.9-1.8-1.9c-0.1,0-0.1,0-0.2,0h-1.7c-0.4,0-0.9-0.3-1-0.7c0-0.1-0.1,0-0.1,0
				c0.1,0.1-0.1,0.3-0.1,0.7c0,0.5,0.3,1,0.9,1c0.1,0,0.1,0,0.2,0c0.2,0,0.5-0.1,0.7-0.1c0.1,0,0.1,0,0.1,0.1
				c-0.3,0.3-0.3,0.8-0.2,1.2c0,0,0.1,0,0.1,0c0.2-0.7,0.9-1.3,1.6-1.3c0.5,0,1,0.3,1,0.9c0,0.1,0,0.1,0,0.2c0,1.2-2.2,2.2-2.2,3.9
				s1.8,2.1,2.9,1.8c-0.1,1.8-2.1,2.3-2.1,1.1c0-0.1-0.1-0.1-0.1,0c-0.2,0.6-0.1,1.2,0.6,1.3c0.1,0,0,0,0,0.1
				c-0.8,0.5-0.4,2.4-0.3,3c0.1,0.8-0.8,0.7-0.8,0.7c0,0-0.1,0,0,0.1c0.3,0.4,0.9,0.4,1.2,0.1c0,0,0,0,0.1-0.1
				c0.5,0.2,0.2,0.6-0.1,0.9c-0.1,0-0.1,0.1,0,0.1c0.1,0,0.9,0.1,1.1-0.6c0.3,0.3,0.7,0.4,1,0.2c0.2-0.1,0.9-0.4,1,0.5
				c0,0.1,0,0,0.1,0c0.3-0.3,0.3-0.7,0.1-1c-0.1-0.1-0.3-0.2-0.5-0.2c0.2-0.2,0.6-0.2,0.8,0c0,0,0.1,0.1,0.1,0.1c0,0,0.1,0,0.1,0
				c0.1-0.9-0.7-1-1.2-0.6c0-0.1-0.2-0.6,0.6-0.6c0,0,0.1,0,0-0.1c-0.2-0.3-0.7-0.4-1-0.1c-0.1,0.1-0.1,0.1-0.2,0.2
				c-0.3,0.3-0.9,0.2-1,0.2c0.2-3.3,3.1-2.1,3.5-3.7c0-0.1,0.1-0.1,0.1,0c0.1,0.4,1.1,0.4,1.3-0.3c0-0.1,0-0.1,0-0.1
				c-0.8,0.8-2.7-1.8-0.1-3.9c1.4-1.3,3.4-1.4,4.9-0.2c0.1,0.2,0,0.3-0.2,0.4c0,0,0,0,0,0c0,0-0.1,0,0,0.1c0.2,0.1,0.5,0,0.6-0.1
				c0.5,0.3,0.1,0.7-0.1,0.9c-0.1,0,0,0.1,0,0.1c0.4,0,0.7-0.2,0.8-0.6l0.1,0v1.9c0,2.6,3,3,6.4,5.2c3.3-2.2,6.4-2.6,6.4-5.2v-1.9
				l0.1,0c0.1,0.4,0.4,0.6,0.8,0.6c0,0,0.1,0,0-0.1c-0.2-0.1-0.6-0.5-0.1-0.9c0.2,0.2,0.4,0.2,0.6,0.1c0.1,0,0-0.1,0-0.1
				c-0.2,0-0.3-0.2-0.2-0.4l0,0c1.5-1.2,3.5-1.1,4.9,0.2c2.6,2.1,0.7,4.7-0.1,3.9c0,0,0,0,0,0.1c0.2,0.8,1.1,0.7,1.3,0.3
				c0,0,0-0.1,0.1,0c0.4,1.6,3.3,0.4,3.5,3.7c-0.1,0-0.7,0.1-1-0.2c-0.2-0.3-0.6-0.4-1-0.2c-0.1,0-0.1,0.1-0.2,0.2c0,0,0,0.1,0,0.1
				c0.8,0,0.6,0.5,0.6,0.6c-0.5-0.4-1.3-0.3-1.2,0.6c0,0.1,0,0.1,0.1,0c0.2-0.3,0.5-0.4,0.8-0.2c0,0,0.1,0.1,0.1,0.1
				c-0.4,0-0.7,0.4-0.6,0.8c0,0.2,0.1,0.3,0.2,0.5c0,0,0.1,0.1,0.1,0c0.1-0.9,0.9-0.6,1-0.5c0.4,0.2,0.8,0.1,1-0.2
				c0.1,0.7,1,0.6,1.1,0.6s0.1,0,0-0.1c-0.4-0.2-0.7-0.7-0.1-0.9c0.3,0.3,0.9,0.3,1.2,0c0,0,0,0,0.1-0.1c0-0.1,0-0.1,0-0.1
				c-0.3,0.1-0.7-0.1-0.8-0.4c0-0.1,0-0.2,0-0.3c0-0.6,0.5-2.5-0.3-3c0,0-0.1-0.1,0-0.1c0.8-0.2,0.9-0.7,0.6-1.3
				c0-0.1-0.1-0.1-0.1,0c-0.1,1.2-2.1,0.7-2.1-1.1c1.1,0.3,2.9-0.1,2.9-1.8s-2.2-2.6-2.2-3.9c-0.1-0.5,0.3-1,0.8-1.1
				c0.1,0,0.1,0,0.2,0c0.8,0,1.4,0.5,1.6,1.3c0,0,0,0,0.1,0c0.1-0.4,0.1-0.8-0.2-1.2c0,0,0-0.1,0.1-0.1c0.2,0.1,0.5,0.2,0.7,0.1
				c0.5,0.1,1-0.3,1-0.8c0-0.1,0-0.1,0-0.2c0-0.4-0.1-0.6-0.1-0.7c0-0.1,0-0.1-0.1,0c-0.1,0.4-0.5,0.7-1,0.7h-1.7
				c-1-0.1-1.9,0.6-2,1.7c0,0.1,0,0.2,0,0.2c0,1.5,2,2.2,2,3.8c0,0.4-0.2,1-1.2,1c-0.4,0-0.8-0.1-1.1-0.2c0,0-0.5-2.7-1.8-3.7
				c-1,0.4-2.1,0.4-3.1-0.1c-1.2-0.6-1.7-1.1-2.8-0.3s-1.9,1.5-2,1.5l-0.2-0.1v-6.2c0.2,0,0.5,0.1,0.5,0.3c0,0,0,0.1,0,0.2
				c0,0.1-0.2,0.2,0.1,0.7c0,0,0.1,0,0.1,0c0-0.1,0.1-0.3,0.2-0.3c0.6,0.3,1.1,0.7,1.5,1.2c0.2-0.6,0.6-1.1,1.2-1.4
				c-0.5-0.1-2.6-0.6-2.6-1.5c0-0.3-0.4-0.4-0.6-0.4c0,0-0.4-0.8-1-0.4c0,0,0,0,0,0.1c0,0,0,0,0,0c0.3,0.1,0.4,0.4,0.4,0.7
				c-2.1-0.6-4.2-0.9-6.3-0.9c-1.3,0-2.7,0.1-4,0.4v2.1h-0.9L257.8,59.5L257.8,59.5 M252,81.3c-0.2-0.1-0.4-0.3-0.4-0.5v-1.3
				c-1.1-0.4-2.3-0.6-3.5-0.5c-1.7,0-2.3,0.4-2.3,0.5l-0.5,2.5c0,0,0.7-0.6,3.2-0.5c3,0.2,6.1,2,6.1,0.1v-1.1
				C252.4,80.5,252,81.2,252,81.3L252,81.3z M270.5,80.5v1.1c0,1.9,3.1,0.1,6.1-0.1c2.5-0.2,3.2,0.5,3.2,0.5l-0.5-2.5
				c0-0.1-0.6-0.5-2.3-0.5c-1.2,0-2.4,0.1-3.5,0.5v1.3c0,0.2-0.1,0.5-0.4,0.5C273.2,81.2,272.9,80.5,270.5,80.5L270.5,80.5
				L270.5,80.5z M262.6,79.3c4.8,0,9.7,0.2,10.4,1c0,0.1,0.1,0,0.1,0v-2.6c0-0.8-5.1-1.2-10.5-1.2s-10.5,0.4-10.5,1.2v2.6
				c0,0,0,0.1,0.1,0C252.9,79.6,257.8,79.3,262.6,79.3L262.6,79.3L262.6,79.3z M258.3,67.2l-0.5-0.1l0,0.1l-0.6-0.2h0.5
				c0,0,0,0,0-0.1l-0.4-0.4l0.6,0.2c0,0,0,0,0,0c-0.2-0.2-0.4-0.6-0.4-0.6s0.5,0.3,0.5,0.4c0,0,0,0,0,0l-0.3-0.7l0.5,0.5
				c0,0,0,0,0,0c0-0.2-0.1-0.6-0.1-0.6l0.4,0.5c0,0,0,0,0,0c0-0.1,0-0.6,0-0.6s0.1,0.4,0.2,0.5c0,0,0,0,0.1,0s0.2-0.5,0.2-0.5l0,0.6
				l-0.1,0l-0.1,0.7c0.7-0.2,1.6-1.4,2.3-1.4c0.8,0,1.1,1,2.7,0.5c0.3,0.5,0.6,1.1,0.7,1.8c0.6,0.6,1.4,0.4,1.4-0.2
				c0-0.8-0.9-0.9-0.9-1.8c0-0.5,0.4-0.9,0.9-0.9c0,0,0,0,0.1,0c0.4,0,0.9,0.2,1.2,0.2c0.2,0,0.5-0.2,0.5-0.4c0-0.1,0.1-0.1,0.1,0
				s0,0.2,0,0.4c0,0.5-0.8,0.6-0.9,0.5c0,0-0.1,0,0,0c0.1,0.1,0.1,0.4,0,0.6c0,0,0,0,0,0c-0.1-0.4-0.5-0.8-0.9-0.8
				c-0.2,0-0.4,0.2-0.4,0.4c0,0,0,0,0,0c0,0.5,0.9,0.9,0.9,1.9s-1,1.3-2,1c0,1,1.5,1.5,1.5,0.8c0-0.1,0,0,0,0
				c0.2,0.3,0.1,0.5-0.1,0.6c0.2,0.1,0.3,0.6,0.4,0.9c0.1,0.4,0.6,0.2,0.6,0.2s0,0,0,0c-0.1,0.3-0.4,0.4-0.6,0.3l0,0
				c-0.2,0.2,0,0.3,0.3,0.4c0,0,0,0,0,0c-0.2,0.1-0.5,0.2-0.7-0.1c-0.1,0.2-0.3,0.3-0.5,0.3c-0.2,0-0.3,0.2-0.3,0.4c0,0,0,0,0,0
				c-0.4-0.3-0.2-0.6,0-0.7c-0.2-0.1-0.4,0-0.4,0.1c0,0,0,0.1,0,0.1c0,0,0,0,0,0c-0.2-0.5,0.2-0.7,0.5-0.5c-0.1-0.2-0.4-0.3-0.6-0.2
				c0,0,0,0,0,0c0.1-0.2,0.3-0.3,0.5-0.2c0,0,0.1,0.1,0.1,0.1c0.2,0.1,0.5-0.1,0.5-0.1c-0.6-1.3-1.9-0.2-2.2-1.2c0,0,0,0,0,0
				c-0.1,0.2-0.6,0.2-0.7-0.2c0,0,0,0,0,0c0.1,0.1,0.2,0.2,0.5-0.2c0.1-0.2,0.2-0.4,0.2-0.7c-0.1-1.1-0.9-2-2-2.1
				c-0.8,0-1.6,0.3-2.2,0.7l0.6,0.1c0,0.5-0.5,0.8-1,0.8c0,0-0.1,0-0.2,0l0.1-0.7c-0.2,0.1-0.3,0.1-0.4,0.3c0,0,0,0,0,0
				c-0.1-0.2,0.1-0.5,0.3-0.6c0,0,0,0,0,0c-0.2,0-0.4,0.1-0.5,0.3c0,0,0,0,0,0l0,0C258.2,67.5,258.2,67.4,258.3,67.2L258.3,67.2
				L258.3,67.2z M260,71.7c-0.2,0.3-0.4,0-0.7,0c-0.2,0-0.3,0.1-0.3,0.3c0,0,0,0,0,0c0,0,0,0,0,0c-0.2-0.2-0.2-0.4,0-0.6
				c0.1-0.1,0.2-0.1,0.3-0.1c-0.1-0.1-0.4-0.1-0.5,0c0,0,0,0,0,0c0,0,0,0,0,0c0-0.5,0.4-0.6,0.7-0.3c0-0.2-0.1-0.3-0.3-0.3
				c0,0,0,0,0,0c0.1-0.1,0.2-0.1,0.3-0.1c0.3,0,0.3,0.4,0.5,0.4c0.3,0,0.7-0.4,0.7-0.4c-0.1-0.4-0.2-0.8-0.2-1.2c0,0,0,0,0,0
				c-0.1,0.1-0.5,0.1-0.5-0.3c0,0,0,0,0,0c0.1,0.2,0.4,0,0.5-0.2s0.8-1.2,1.8-1.2c0.2,0,0.5,0.1,0.7,0.3c-0.3,0.4,0,0.8,0.2,0.7
				c0,0,0,0,0,0c-1.2,0.5-1.8,0.7-1.8,1.7c0,0.5,0.2,0.8,0.5,0.8c0,0,0,0,0,0c-0.1,0.1-0.2,0.2-0.4,0.2c-0.3,0-0.3-0.1-0.5-0.1
				s-0.6,0.3-0.6,0.5c0,0.1,0.1,0.2,0.2,0.3c0,0,0,0,0,0C260.3,72.1,260.1,71.9,260,71.7L260,71.7L260,71.7z M263.3,61.5
				c-0.4,0-0.6,0.1-0.6,0.2C262.9,61.9,263.1,61.9,263.3,61.5L263.3,61.5z M261.9,62.5c0.2,0,0.4-0.1,0.6,0c0,0,0,0,0,0.1
				c0,0,0,0,0,0c-0.6,0.1-0.6,0.3-1,0.3c-0.2,0-0.4-0.2-0.4-0.5c0,0,0-0.1,0-0.1c0,0,0,0,0.1,0C261.2,62.4,261.4,62.6,261.9,62.5
				L261.9,62.5L261.9,62.5z M254.4,75.3c0.4,0.5,0.8,0,1.2,0c0.2,0,0.5,0.1,0.6,0.6c0,0,0,0,0,0c0.3-0.3,0.3-0.7,0-1
				c-0.1-0.1-0.3-0.2-0.4-0.2c0.3-0.2,0.7-0.2,0.9,0.1c0,0,0,0,0,0c0,0,0,0,0,0c0,0,0,0,0,0c0-0.9-0.7-1-1.2-0.6
				c-0.1-0.4,0.2-0.6,0.5-0.6c0,0,0.1,0,0-0.1c-0.6-0.7-1.1,0.2-1.2,0.3c-0.2,0.3-1.1-0.3-1.5-0.7c0.4-0.4,0.7-1,0.8-1.6v-0.1
				c0,0,0,0,0,0c0.1,0.1,0.2,0.1,0.3,0.1c0.2,0,0.5-0.1,0.5-0.7c0-0.1,0-0.1,0,0c-0.1,0.1-0.2,0.2-0.3,0.2c-0.6,0-2-2.2-3.6-2.2
				c-0.6,0.1-1.2,0.3-1.6,0.7c0.2,0.1,0.2,0.3,0.2,0.5c0,0.2-0.2,0.4-0.5,0.5c0,0,0,0,0,0.1c0.9,0.3,1.8,0.7,2.6,1.1
				c0.4,0.3,0.3,1,0.1,1.9c-0.2,0.8-0.7,0.7-0.9,0.7c0,0,0,0,0,0c0.2,0.2,0.4,0.3,0.7,0.3c0.4,0,0.6-0.3,0.8-0.3
				c0.4,0,1.1,0.5,1.1,0.9c0,0.2-0.2,0.5-0.4,0.6c0,0,0,0,0,0C253.6,75.9,254.3,75.9,254.4,75.3L254.4,75.3L254.4,75.3z M271.9,75.8
				C271.9,75.8,271.9,75.8,271.9,75.8c-0.2-0.1-0.4-0.3-0.4-0.6c0-0.4,0.8-0.9,1.1-0.9c0.2,0,0.4,0.3,0.8,0.3c0.3,0,0.5-0.1,0.7-0.3
				c0,0,0,0,0,0c-0.2,0-0.6,0.1-0.9-0.7c-0.2-0.9-0.3-1.5,0.1-1.9c0.8-0.5,1.7-0.8,2.6-1.1c0,0,0-0.1,0-0.1c-0.2,0-0.4-0.2-0.5-0.5
				c0-0.2,0-0.4,0.2-0.5c-0.4-0.4-1-0.7-1.6-0.7c-1.6,0-2.9,2.2-3.6,2.2c-0.1,0-0.2-0.1-0.3-0.2c0,0,0,0,0,0c0,0.7,0.3,0.7,0.5,0.7
				c0.1,0,0.2,0,0.3-0.1c0,0,0,0,0,0v0.1c0.1,0.6,0.4,1.2,0.8,1.6c-0.4,0.4-1.3,1-1.5,0.7c-0.1-0.1-0.6-1-1.2-0.3c0,0,0,0.1,0,0.1
				c0.4,0,0.6,0.2,0.5,0.6c-0.5-0.4-1.2-0.3-1.2,0.6c0,0,0,0,0,0c0,0,0,0,0,0c0.2-0.3,0.6-0.3,0.9-0.1c0,0,0,0,0,0
				c-0.4,0-0.7,0.4-0.6,0.8c0,0.2,0.1,0.3,0.2,0.4c0,0,0,0,0,0c0.1-0.5,0.4-0.6,0.6-0.6c0.5,0,0.9,0.5,1.2,0
				C271,75.9,271.7,75.8,271.9,75.8L271.9,75.8L271.9,75.8z M259.1,63.4c0,0.1-0.2,0-0.3,0c0,0,0,0,0,0c0,0.1,0.2,0.4,0.4,0.4
				c0.1,0,0.2,0,0.3-0.1c0,0,0.9,0.3,1.4,0.4c-0.2,0.2-0.3,0.5-0.3,0.8c-0.4-0.2-1.9-1-1.9-1l-0.5,0.6c-0.1,0.1-0.5-0.2-0.4-0.3
				l0.4-0.5c-0.1-0.1-0.4,0-0.5,0c0,0,0,0,0,0c0.1-0.2,0.4-0.4,0.7-0.3c0-0.3-0.4-0.2-0.5-0.2c0,0,0,0,0,0c0.2-0.2,0.5-0.3,0.8-0.2
				l0.2-0.2l-0.3-0.3l0.2-0.3l0.2,0.3l1.7-2.4c0.2-0.1,0.3-0.2,0.5-0.2c0,0.2,0,0.4,0,0.5l-1.7,2.4l0.4,0.1l-0.2,0.3l-0.4-0.2
				L259.1,63.4L259.1,63.4z M265.1,63c0,0.2,0.1,0.5,0.4,0.4c0,0,0,0,0,0c0,0.2-0.5,0.5-0.7,0.2c-0.2,0.3-0.1,0.7,0.2,0.9
				c0,0,0,0,0.1,0c0,0,0,0,0,0c0,0,0,0,0,0c-0.2,0.2-0.5,0.1-0.7-0.1c0,0,0-0.1,0-0.1c-0.3,0.2-0.3,0.6-0.1,0.9
				c-0.5,0.3-1.1,0.3-1.6,0.1c-0.5-0.3-1-0.5-1.6-0.5c0.1-0.9,0.6-1.2,1.4-1.3c0.7-0.1,0.8-0.4,0.7-0.7c-0.2,0-0.5,0-0.6,0.2
				c0-0.1,0-0.2,0-0.3c0-0.1-0.1-0.1-0.1-0.2c0.5,0,0.6-0.1,0.6-0.1c0.1-0.5-0.4-0.5-0.8-0.3c-0.1-0.1-0.2-0.2-0.1-0.4
				c0,0-0.1-0.1-0.1-0.1c0-0.1,0.6-0.4,0.7-0.5c0-0.2,0.2-0.4,0.8-0.3c0-0.3,0-0.6-0.1-0.9c0,0,0-0.1,0.1,0c0.2,0.1,0.4,0.6,0.6,0.6
				c0.2-0.1,0.5-0.2,0.7-0.3c0,0.3,0.1,0.5,0.1,0.8c0.1,0.1,0.6,0,0.8,0.1c0.1,0,0.1,0.1,0,0.1c-0.3,0.1-0.6,0.2-0.8,0.4
				C265.1,62.1,265.2,62.6,265.1,63L265.1,63L265.1,63z"/>
		</g>
	</g>
</g>
<g>
	<path d="M299.9,61.2c0.6-0.2,0.9-0.5,0.9-1.2v-7.9l-1-0.3v-0.4c1-0.2,1.9-0.2,3.2-0.2c2.4,0,3.6,0.9,3.6,2.7c0,1.6-0.9,2.6-2.3,3.1
		l2.3,3c0.4,0.5,0.9,0.9,1.5,1.1v0.3c-0.3,0.2-0.7,0.4-1.2,0.4c-0.7,0-1.1-0.3-1.7-1.1l-2.1-3.2h-0.8v3.4l1,0.3v0.4
		c-0.5,0.2-1.1,0.3-1.8,0.3c-0.6,0-1,0-1.5-0.2V61.2z M302.8,56.6c1.2,0,2.3-0.8,2.3-2.5c0-1.3-0.8-2.1-2.2-2.1
		c-0.2,0-0.5,0-0.7,0.1v4.5H302.8z"/>
	<path d="M308.6,61.2c0.4-0.2,0.8-0.5,0.8-0.9v-5.4l-1-0.4v-0.3c0.7-0.2,1.5-0.3,1.9-0.3h0.5l-0.1,0.9v6.1l0.9,0.2v0.3
		c-0.5,0.2-1,0.3-1.9,0.3c-0.4,0-0.8,0-1.2-0.1V61.2z M309.3,51.5c0-0.5,0.4-0.9,0.9-0.9c0.4,0,0.8,0.3,0.8,0.9c0,0.6-0.4,1-0.9,1
		C309.7,52.4,309.3,52,309.3,51.5z"/>
	<path d="M313.8,54.9l-1-0.4v-0.3c0.7-0.2,1.5-0.3,1.9-0.3h0.5l-0.1,0.9v7.2c0,2.6-0.8,3.4-1.8,3.4c-0.4,0-0.7-0.1-0.9-0.4v-0.3
		c0.7,0,1.4-0.8,1.4-2.4V54.9z M313.6,51.5c0-0.5,0.4-0.9,0.9-0.9c0.4,0,0.8,0.3,0.8,0.9c0,0.6-0.4,1-0.9,1
		C314,52.4,313.6,52,313.6,51.5z"/>
	<path d="M317.1,61.2c0.4-0.2,0.9-0.5,0.9-0.9v-9.3l-1.1-0.4v-0.4c0.7-0.2,1.5-0.3,1.9-0.3h0.5l-0.1,0.9v6.4l0.9-0.8
		c0.9-0.7,1.6-1.8,1.6-2.6c0.3-0.1,0.5-0.1,0.8-0.1c0.2,0,0.4,0,0.6,0.1c0,0.7-0.7,1.8-2.2,2.8l-0.6,0.4l2.5,3
		c0.4,0.5,0.8,0.8,1.2,0.8v0.3c-0.4,0.2-0.7,0.3-1.2,0.3c-0.4,0-0.8-0.2-1.1-0.6l-2.6-3.4v3.2l0.8,0.3v0.3c-0.6,0.2-1.1,0.3-1.8,0.3
		c-0.4,0-0.8,0-1.2-0.1V61.2z"/>
	<path d="M324.5,59.8c0.7,0.7,1.4,1,2.3,1c0.9,0,1.4-0.4,1.4-1c0-0.6-0.3-0.9-1.4-1.4l-0.8-0.3c-0.9-0.4-1.4-1.1-1.4-2
		c0-1.3,1.1-2.4,2.8-2.4c1.3,0,1.8,0.4,1.8,1c0,0.2,0,0.4-0.1,0.7c-0.5-0.4-1.2-0.6-1.8-0.6c-1,0-1.5,0.4-1.5,1
		c0,0.6,0.3,0.9,1.2,1.3l0.9,0.3c1.2,0.4,1.6,1,1.6,2c0,1.2-1.2,2.4-3,2.4c-1.4,0-2-0.4-2-1.3C324.4,60.2,324.4,59.9,324.5,59.8z"/>
	<path d="M334.2,53.7c2,0,3.5,1.5,3.5,3.7c0,2.6-1.8,4.3-3.7,4.3c-1.9,0-3.5-1.4-3.5-3.7C330.4,55.4,332.2,53.7,334.2,53.7z
		 M334.1,60.8c1.1,0,2.2-1,2.2-3.2c0-1.9-1-2.9-2.1-2.9c-1.1,0-2.2,1.1-2.2,3.2C331.9,59.8,332.9,60.8,334.1,60.8z"/>
	<path d="M338.7,54.7l-0.7-0.5v-0.4h3.1v0.4l-0.9,0.4l1.7,5.1h0l1.8-5l-0.9-0.4v-0.4h2.5v0.4l-0.4,0.4l-2.8,7.1l-0.5,0L338.7,54.7z"
		/>
	<path d="M348.9,53.8c1.7,0,2.8,1.2,2.8,3c0,0.3,0,0.6,0,1h-4.7c0,1.8,1,2.8,2.4,2.8c0.8,0,1.6-0.3,2.3-0.7c0,0.1,0.1,0.3,0.1,0.4
		c0,0.7-1.1,1.4-2.8,1.4c-1.8,0-3.3-1.4-3.3-3.7C345.6,55.3,347.2,53.8,348.9,53.8z M350.4,56.9c0-1.6-0.7-2.3-1.6-2.3
		c-0.9,0-1.8,1.1-1.8,2.3H350.4z"/>
	<path d="M353,61.2c0.4-0.2,0.8-0.5,0.8-0.9v-5.4l-1-0.4v-0.4c0.7-0.2,1.5-0.3,1.9-0.3h0.4V55h0l0.4-0.5c0.4-0.5,0.9-0.7,1.4-0.7
		c0.6,0,0.8,0.2,0.8,0.7c0,0.3-0.1,0.7-0.3,1c-0.3-0.2-0.7-0.4-1-0.4c-0.5,0-1,0.2-1.4,0.7v5.1l1.1,0.2v0.3c-0.5,0.2-1.1,0.3-2,0.3
		c-0.5,0-0.9,0-1.3-0.1V61.2z"/>
	<path d="M358.3,61.2c0.4-0.2,0.8-0.5,0.8-0.9v-9.3l-1-0.4v-0.4c0.7-0.2,1.4-0.3,1.9-0.3h0.5l-0.1,0.9v3.8c0.6-0.6,1.3-0.9,2.3-0.9
		c1.4,0,2.2,0.8,2.2,2.5v4.5l0.8,0.2v0.3c-0.4,0.2-1,0.3-1.7,0.3c-0.3,0-0.7,0-1-0.1v-0.3c0.4-0.2,0.6-0.5,0.6-1.1v-3.1
		c0-1.6-0.6-2.2-1.6-2.2c-0.6,0-1.2,0.2-1.6,0.5v5.4l0.9,0.2v0.3c-0.5,0.2-1,0.3-1.9,0.3c-0.4,0-0.8,0-1.2-0.1V61.2z"/>
	<path d="M370.3,53.8c1.7,0,2.8,1.2,2.8,3c0,0.3,0,0.6,0,1h-4.7c0,1.8,1,2.8,2.4,2.8c0.8,0,1.6-0.3,2.3-0.7c0,0.1,0.1,0.3,0.1,0.4
		c0,0.7-1.1,1.4-2.8,1.4c-1.8,0-3.3-1.4-3.3-3.7C367,55.3,368.7,53.8,370.3,53.8z M371.8,56.9c0-1.6-0.7-2.3-1.6-2.3
		c-0.9,0-1.8,1.1-1.8,2.3H371.8z"/>
	<path d="M374.4,61.2c0.4-0.2,0.8-0.5,0.8-0.9v-5.4l-1-0.4v-0.3c0.7-0.2,1.5-0.3,1.9-0.3h0.5l-0.1,0.9v6.1l0.9,0.2v0.3
		c-0.5,0.2-1,0.3-1.9,0.3c-0.4,0-0.8,0-1.2-0.1V61.2z M375.1,51.5c0-0.5,0.4-0.9,0.9-0.9c0.4,0,0.8,0.3,0.8,0.9c0,0.6-0.4,1-0.9,1
		C375.4,52.4,375.1,52,375.1,51.5z"/>
	<path d="M382.4,53.8c0.4,0,0.8,0,1.1,0.1v-2.8l-1.1-0.4v-0.4c0.7-0.2,1.5-0.3,2-0.3h0.5l-0.1,0.9v9.2c0.1,0.3,0.3,0.7,0.6,0.9
		c-0.3,0.3-0.7,0.5-1.1,0.8c-0.3-0.3-0.6-0.6-0.8-1c-0.5,0.5-1.4,0.9-2,0.9c-1.6,0-2.9-1.3-2.9-3.5
		C378.6,55.3,380.3,53.8,382.4,53.8z M383.5,60.1v-5.3c-0.3-0.1-0.7-0.2-1.2-0.2c-1.4,0-2.4,1.1-2.4,3.3c0,1.7,0.9,2.7,1.9,2.7
		C382.5,60.6,383.2,60.4,383.5,60.1z"/>
</g>
</svg>
