<?xml version="1.0" encoding="UTF-8"?>
<svg id="a" data-name="Layer 1" xmlns="http://www.w3.org/2000/svg" xmlns:xlink="http://www.w3.org/1999/xlink" viewBox="0 0 481 225">
  <defs>
    <style>
      .c {
        fill: url(#b);
      }

      .d {
        fill: #f8e8d9;
      }

      .e {
        fill: #fff;
      }
    </style>
    <linearGradient id="b" x1="240.5" y1="225" x2="240.5" y2="0" gradientUnits="userSpaceOnUse">
      <stop offset="0" stop-color="#e17325"/>
      <stop offset=".24" stop-color="#bd6025"/>
      <stop offset=".58" stop-color="#8f4925"/>
      <stop offset=".85" stop-color="#733a25"/>
      <stop offset="1" stop-color="#693526"/>
    </linearGradient>
  </defs>
  <rect class="c" y="0" width="481" height="225"/>
  <g>
    <g>
      <path class="e" d="m178.15,159.3h-9.04l-2.77-9.9h-14.78l-2.77,9.9h-8.18l12.87-43.28h11.94l12.73,43.28Zm-18.94-36.29h-.46l-5.61,20.06h11.48l-5.41-20.06Z"/>
      <path class="e" d="m183.82,116.01h22.7v6.53h-14.78v11.22h13.59v6.53h-13.59v12.47h14.98v6.53h-22.9v-43.28Z"/>
      <path class="e" d="m223.21,159.3h-7.92v-43.28h12.67c10.82,0,16.17,4.95,16.17,12.07,0,5.87-3.04,10.29-7.85,12.47l11.48,18.74h-9.24l-9.9-16.56h-5.41v16.56Zm0-22.76h4.82c4.75,0,7.85-2.77,7.85-7.52,0-4.42-2.51-6.66-8.51-6.66h-4.16v14.19Z"/>
      <path class="e" d="m260.56,159.3h-7.92v-43.28h7.92v43.28Z"/>
      <path class="e" d="m270.52,144.32v-28.3h7.92v27.38c0,6.47,2.97,9.37,8.64,9.37s8.51-3.23,8.51-9.24v-27.51h7.52v27.71c0,9.7-6.27,16.1-16.49,16.1-11.08,0-16.1-5.41-16.1-15.5Z"/>
      <path class="e" d="m309.58,152.11c4.22.79,7.32,1.06,11.02,1.06,6,0,9.3-2.64,9.3-5.74,0-2.77-1.32-4.42-6.53-6.2l-5.41-1.85c-5.08-1.71-7.85-5.34-7.85-10.89,0-7.52,6.07-12.93,16.69-12.93,3.1,0,6.2.26,9.17.86l-.53,6.6c-3.17-.59-5.74-.86-9.04-.86-5.94,0-8.58,2.31-8.58,5.41,0,2.71,1.52,4.29,5.48,5.54l5.34,1.71c6.33,2.05,9.11,5.48,9.11,11.08,0,8.18-6.6,13.86-17.42,13.86-3.96,0-6.99-.13-10.75-.79v-6.86Z"/>
    </g>
    <g>
      <polygon class="e" points="232.69 27.76 240.34 14.52 247.98 27.76 232.69 27.76"/>
      <path class="e" d="m254.27,37.06h-27.89c-8.58,0-15.54,6.94-15.54,15.52v27.92c0,8.58,6.96,15.52,15.54,15.52h6.33v-13.09h15.27v13.09h6.29c8.6,0,15.55-6.94,15.55-15.52v-27.92c0-8.58-6.95-15.52-15.55-15.52Zm-21.58,28.34l7.65-13.24,7.64,13.24h-15.29Z"/>
    </g>
    <path class="e" d="m342.49,105.49c3,0,5.46,2.47,5.46,5.46s-2.46,5.48-5.46,5.48-5.48-2.46-5.48-5.48,2.47-5.46,5.48-5.46Zm0,10.15c2.55,0,4.62-2.13,4.62-4.69s-2.08-4.69-4.62-4.69-4.64,2.14-4.64,4.69,2.08,4.69,4.64,4.69Zm-1.11-1.61h-.95v-6.27h1.93c1.63,0,2.37.68,2.37,1.71,0,.95-.53,1.6-1.35,1.85l1.8,2.71h-1.16l-1.63-2.46h-1.02v2.46Zm0-3.27h.81c1.05,0,1.55-.39,1.55-1.19,0-.66-.44-1.03-1.39-1.03h-.97v2.22Z"/>
  </g>
  <g>
    <path class="d" d="m164.13,207.11c-2.59.57-4.35.83-7.51.83-8.65,0-15.33-5.65-15.33-16.63,0-12.59,8.19-18.03,16.11-18.03,2.75,0,4.35.21,6.68.67l-.47,3.21c-2.9-.57-3.89-.67-6.42-.67-6.06,0-12.17,4.46-12.17,14.19s5.34,14.04,12.23,14.04c2.43,0,4.2-.1,6.89-.73v3.11Z"/>
    <path class="d" d="m181.23,173.12c7.82,0,13.68,5.85,13.68,17.2s-6.32,17.72-14.56,17.72-13.73-5.85-13.73-17.2,6.37-17.72,14.61-17.72Zm-.47,31.7c4.97,0,10.46-3.63,10.46-13.99s-4.77-14.5-10.41-14.5c-4.97,0-10.46,3.63-10.46,13.99s4.77,14.5,10.41,14.5Z"/>
    <path class="d" d="m204.75,177.42h-.21v30.15h-3.37v-33.98h5.49l14.19,30.15h.26v-30.15h3.37v33.98h-5.49l-14.24-30.15Z"/>
    <path class="d" d="m236.66,177.42h-.21v30.15h-3.37v-33.98h5.49l14.19,30.15h.26v-30.15h3.37v33.98h-5.49l-14.25-30.15Z"/>
    <path class="d" d="m264.99,173.59h16.47v3.21h-12.9v11.71h11.6v3.21h-11.6v12.64h13.06v3.21h-16.63v-33.98Z"/>
    <path class="d" d="m308.98,207.11c-2.59.57-4.35.83-7.51.83-8.65,0-15.33-5.65-15.33-16.63,0-12.59,8.19-18.03,16.11-18.03,2.75,0,4.35.21,6.68.67l-.47,3.21c-2.9-.57-3.89-.67-6.42-.67-6.06,0-12.17,4.46-12.17,14.19s5.34,14.04,12.23,14.04c2.43,0,4.2-.1,6.89-.73v3.11Z"/>
    <path class="d" d="m324,207.57h-3.57v-30.77h-10.1v-3.21h23.73v3.21h-10.05v30.77Z"/>
  </g>
</svg>