<?xml version="1.0" encoding="UTF-8"?>
<svg id="a" data-name="Layer 1" xmlns="http://www.w3.org/2000/svg" xmlns:xlink="http://www.w3.org/1999/xlink" viewBox="0 0 481 225">
  <defs>
    <style>
      .c {
        fill: url(#b);
      }

      .d {
        fill: #f5d1cf;
      }

      .e {
        fill: #fff;
      }
    </style>
    <linearGradient id="b" x1="240.5" y1="225" x2="240.5" y2="0" gradientUnits="userSpaceOnUse">
      <stop offset="0" stop-color="#d73427"/>
      <stop offset=".15" stop-color="#be2b22"/>
      <stop offset=".38" stop-color="#9d1f1c"/>
      <stop offset=".61" stop-color="#861618"/>
      <stop offset=".82" stop-color="#771115"/>
      <stop offset="1" stop-color="#731015"/>
    </linearGradient>
  </defs>
  <rect class="c" y="0" width="481" height="225"/>
  <g>
    <g>
      <path class="e" d="m178.15,159.3h-9.04l-2.77-9.9h-14.78l-2.77,9.9h-8.18l12.87-43.28h11.94l12.73,43.28Zm-18.94-36.29h-.46l-5.61,20.06h11.48l-5.41-20.06Z"/>
      <path class="e" d="m183.82,116.01h22.7v6.53h-14.78v11.22h13.59v6.53h-13.59v12.47h14.98v6.53h-22.9v-43.28Z"/>
      <path class="e" d="m223.21,159.3h-7.92v-43.28h12.67c10.82,0,16.17,4.95,16.17,12.07,0,5.87-3.04,10.29-7.85,12.47l11.48,18.74h-9.24l-9.9-16.56h-5.41v16.56Zm0-22.76h4.82c4.75,0,7.85-2.77,7.85-7.52,0-4.42-2.51-6.66-8.51-6.66h-4.16v14.19Z"/>
      <path class="e" d="m260.56,159.3h-7.92v-43.28h7.92v43.28Z"/>
      <path class="e" d="m270.52,144.32v-28.3h7.92v27.38c0,6.47,2.97,9.37,8.64,9.37s8.51-3.23,8.51-9.24v-27.51h7.52v27.71c0,9.7-6.27,16.1-16.49,16.1-11.08,0-16.1-5.41-16.1-15.5Z"/>
      <path class="e" d="m309.58,152.11c4.22.79,7.32,1.06,11.02,1.06,6,0,9.3-2.64,9.3-5.74,0-2.77-1.32-4.42-6.53-6.2l-5.41-1.85c-5.08-1.71-7.85-5.34-7.85-10.89,0-7.52,6.07-12.93,16.69-12.93,3.1,0,6.2.26,9.17.86l-.53,6.6c-3.17-.59-5.74-.86-9.04-.86-5.94,0-8.58,2.31-8.58,5.41,0,2.71,1.52,4.29,5.48,5.54l5.34,1.71c6.33,2.05,9.11,5.48,9.11,11.08,0,8.18-6.6,13.86-17.42,13.86-3.96,0-6.99-.13-10.75-.79v-6.86Z"/>
    </g>
    <g>
      <polygon class="e" points="232.69 27.76 240.34 14.52 247.98 27.76 232.69 27.76"/>
      <path class="e" d="m254.27,37.06h-27.89c-8.58,0-15.54,6.94-15.54,15.52v27.92c0,8.58,6.96,15.52,15.54,15.52h6.33v-13.09h15.27v13.09h6.29c8.6,0,15.55-6.94,15.55-15.52v-27.92c0-8.58-6.95-15.52-15.55-15.52Zm-21.58,28.34l7.65-13.24,7.64,13.24h-15.29Z"/>
    </g>
    <path class="e" d="m342.49,105.49c3,0,5.46,2.47,5.46,5.46s-2.46,5.48-5.46,5.48-5.48-2.46-5.48-5.48,2.47-5.46,5.48-5.46Zm0,10.15c2.55,0,4.62-2.13,4.62-4.69s-2.08-4.69-4.62-4.69-4.64,2.14-4.64,4.69,2.08,4.69,4.64,4.69Zm-1.11-1.61h-.95v-6.27h1.93c1.63,0,2.37.68,2.37,1.71,0,.95-.53,1.6-1.35,1.85l1.8,2.71h-1.16l-1.63-2.46h-1.02v2.46Zm0-3.27h.81c1.05,0,1.55-.39,1.55-1.19,0-.66-.44-1.03-1.39-1.03h-.97v2.22Z"/>
  </g>
  <g>
    <path class="d" d="m147.4,177.68l-1.37,29.56h-3.3l1.62-33.26h5.22l9.43,22.16h.2l9.18-22.16h5.12l1.62,33.26h-3.5l-1.37-29.56h-.2l-9.58,22.61h-3.19l-9.68-22.61h-.2Z"/>
    <path class="d" d="m195.05,173.52c7.66,0,13.38,5.73,13.38,16.83s-6.19,17.34-14.25,17.34-13.44-5.73-13.44-16.83,6.24-17.34,14.3-17.34Zm-.46,31.03c4.87,0,10.24-3.55,10.24-13.69s-4.66-14.2-10.19-14.2c-4.87,0-10.24,3.55-10.24,13.69s4.67,14.2,10.19,14.2Z"/>
    <path class="d" d="m218.06,177.73h-.2v29.51h-3.3v-33.26h5.38l13.89,29.51h.25v-29.51h3.3v33.26h-5.38l-13.94-29.51Z"/>
    <path class="d" d="m249.29,207.23h-3.5v-33.26h3.5v33.26Z"/>
    <path class="d" d="m267.64,207.23h-3.5v-30.12h-9.89v-3.14h23.22v3.14h-9.84v30.12Z"/>
    <path class="d" d="m292.89,173.52c7.66,0,13.38,5.73,13.38,16.83s-6.19,17.34-14.25,17.34-13.44-5.73-13.44-16.83,6.24-17.34,14.3-17.34Zm-.46,31.03c4.87,0,10.24-3.55,10.24-13.69s-4.66-14.2-10.19-14.2c-4.87,0-10.24,3.55-10.24,13.69s4.67,14.2,10.19,14.2Z"/>
    <path class="d" d="m315.9,207.23h-3.5v-33.26h8.52c7.15,0,11.11,3.4,11.11,8.92,0,4.77-2.43,8.01-6.49,9.43l8.82,14.91h-4.11l-8.21-14.2h-6.14v14.2Zm0-17.24h4.92c4.67,0,7.61-2.03,7.61-6.59,0-4.16-2.49-6.39-7.76-6.39h-4.77v12.98Z"/>
  </g>
</svg>